<?xml version="1.0" encoding="iso-8859-1"?>
<!-- Generator: Adobe Illustrator 19.0.0, SVG Export Plug-In . SVG Version: 6.00 Build 0)  -->
<svg version="1.1" id="Layer_1" xmlns="http://www.w3.org/2000/svg" xmlns:xlink="http://www.w3.org/1999/xlink" x="0px" y="0px"
	 viewBox="0 0 512 512" style="enable-background:new 0 0 512 512;" xml:space="preserve">
<path style="fill:#E08D8D;" d="M461.17,341.116V21.288c0-7.398-6.052-13.451-13.451-13.451H64.28
	c-7.398,0-13.451,6.053-13.451,13.451v319.829L461.17,341.116L461.17,341.116z"/>
<path style="opacity:0.1;enable-background:new    ;" d="M94.345,341.116V21.288c0-7.398,6.053-13.451,13.451-13.451H64.28
	c-7.398,0-13.451,6.053-13.451,13.451v319.829L94.345,341.116L94.345,341.116z"/>
<rect x="91.178" y="48.191" style="fill:#FFEAD7;" width="329.634" height="292.927"/>
<rect x="91.178" y="48.191" style="opacity:0.1;enable-background:new    ;" width="32.664" height="292.927"/>
<path style="fill:#CDF9DF;" d="M256,206.359c-2.504,0-4.879-1.111-6.487-3.029l-45.986-54.929c-2.511-2.998-2.639-7.327-0.311-10.47
	l17.023-22.969c1.596-2.154,4.117-3.422,6.797-3.422h57.926c2.68,0,5.203,1.27,6.797,3.422l17.025,22.969
	c2.328,3.143,2.2,7.471-0.309,10.47l-45.988,54.929C260.88,205.249,258.506,206.359,256,206.359z"/>
<g>
	<path style="fill:#FFFFFF;" d="M234.719,142.85l18.294,62.961c0.945,0.356,1.954,0.548,2.986,0.548
		c1.033,0,2.044-0.192,2.988-0.548l18.293-62.961H234.719z"/>
	<polygon style="fill:#FFFFFF;" points="264.153,111.539 247.847,111.539 234.719,142.85 277.281,142.85 	"/>
</g>
<path style="fill:#E6E6E6;" d="M163.745,302.937c5.925-45.629,45.038-80.988,92.255-80.988c47.218,0,86.331,35.359,92.255,80.988
	h33.127C375.318,239.024,321.5,189.024,256,189.024s-119.318,49.999-125.383,113.913L163.745,302.937L163.745,302.937z"/>
<path style="fill:#FFDC97;" d="M382.433,168.71c-12.76,8.222-19.427,14.888-27.649,27.649
	c-8.223-12.761-14.889-19.427-27.649-27.649c12.76-8.222,19.426-14.888,27.649-27.649
	C363.006,153.823,369.672,160.488,382.433,168.71z"/>
<g>
	
		<rect x="146.685" y="145.644" transform="matrix(-0.7071 -0.7071 0.7071 -0.7071 158.5021 379.1043)" style="fill:#FFED84;" width="22.162" height="22.162"/>
	
		<rect x="164.326" y="75.515" transform="matrix(-0.7071 -0.7071 0.7071 -0.7071 240.4258 277.2161)" style="fill:#FFED84;" width="26.6" height="26.599"/>
</g>
<path style="fill:#FFFFFF;" d="M436.879,341.116c-0.649-21.195-18.022-38.18-39.376-38.18H114.497
	c-21.354,0-38.726,16.985-39.376,38.18H436.879z"/>
<path style="fill:#AF3B2C;" d="M485.598,490.712c0,7.398-6.052,13.451-13.45,13.451H39.853c-7.398,0-13.451-6.053-13.451-13.451
	V354.566c0-7.398,6.052-13.45,13.451-13.45h432.294c7.398,0,13.45,6.052,13.45,13.45V490.712z"/>
<path style="fill:#E27171;" d="M485.598,490.712c0,7.398-6.052,13.451-13.45,13.451H39.853c-7.398,0-13.451-6.053-13.451-13.451
	V354.566c0-7.398,6.052-13.45,13.451-13.45h432.294c7.398,0,13.45,6.052,13.45,13.45V490.712z"/>
<path style="opacity:0.1;enable-background:new    ;" d="M70.008,490.712V354.566c0-7.398,6.053-13.45,13.451-13.45H39.853
	c-7.398,0-13.451,6.052-13.451,13.45v136.146c0,7.398,6.052,13.451,13.451,13.451h43.606
	C76.061,504.163,70.008,498.11,70.008,490.712z"/>
<path style="fill:#FFBAC5;" d="M256,471.39c-1.523,0-2.985-0.604-4.064-1.681l-39.65-39.665c-5.605-5.602-8.691-13.052-8.691-20.975
	c0-7.922,3.087-15.373,8.693-20.975c5.605-5.602,13.058-8.687,20.986-8.687c7.928,0,15.381,3.086,20.985,8.687l1.742,1.743
	l1.742-1.743c5.605-5.602,13.056-8.687,20.986-8.687c7.928,0,15.38,3.086,20.985,8.687c5.605,5.603,8.693,13.053,8.693,20.975
	c0,7.923-3.088,15.374-8.693,20.975l-39.649,39.665C258.987,470.786,257.525,471.39,256,471.39z"/>
<path style="opacity:0.1;enable-background:new    ;" d="M244.838,419.488c-5.605-5.602-8.691-13.052-8.691-20.975
	c0-6.5,2.081-12.681,5.925-17.786c-2.813-0.868-5.771-1.322-8.799-1.322c-7.928,0-15.38,3.086-20.986,8.687
	c-5.606,5.603-8.693,13.053-8.693,20.975c0,7.923,3.087,15.374,8.691,20.975l39.65,39.665c1.078,1.077,2.54,1.681,4.064,1.681
	c1.524,0,2.987-0.604,4.064-1.681l17.487-17.495L244.838,419.488z"/>
<path d="M386.678,162.122c-11.796-7.601-17.708-13.514-25.306-25.305c-1.443-2.239-3.924-3.592-6.588-3.592
	c-2.663,0-5.145,1.353-6.588,3.592c-7.6,11.794-13.512,17.707-25.306,25.306c-2.239,1.443-3.592,3.924-3.592,6.588
	c0,2.663,1.353,5.145,3.592,6.588c11.795,7.6,17.707,13.513,25.306,25.306c1.443,2.239,3.925,3.592,6.588,3.592
	c2.663,0,5.145-1.353,6.588-3.592c7.597-11.793,13.511-17.705,25.306-25.305c2.239-1.443,3.592-3.924,3.592-6.588
	C390.269,166.047,388.916,163.565,386.678,162.122z M354.784,182.767c-4.244-5.415-8.642-9.813-14.058-14.057
	c5.416-4.244,9.814-8.642,14.058-14.057c4.244,5.416,8.641,9.812,14.058,14.057C363.425,172.956,359.028,177.352,354.784,182.767z"
	/>
<path d="M163.321,135.52c-3.061-3.061-8.023-3.061-11.082,0l-15.673,15.673c-1.47,1.469-2.296,3.463-2.296,5.541
	c0,2.078,0.827,4.072,2.296,5.542l15.675,15.673c1.531,1.53,3.536,2.295,5.541,2.295c2.005,0,4.011-0.765,5.542-2.296l15.672-15.673
	c3.061-3.061,3.059-8.023,0-11.082L163.321,135.52z M157.781,161.326l-4.592-4.591l4.59-4.59l4.591,4.591L157.781,161.326z"/>
<path d="M183.173,64.467c-3.061-3.062-8.023-3.061-11.082,0l-18.808,18.808c-1.47,1.47-2.296,3.463-2.296,5.541
	s0.827,4.072,2.296,5.542l18.81,18.808c1.531,1.53,3.536,2.295,5.541,2.295c2.005,0,4.011-0.765,5.541-2.296l18.807-18.808
	c3.061-3.061,3.061-8.023,0-11.082L183.173,64.467z M177.634,96.542l-7.727-7.726l7.725-7.725l7.727,7.726L177.634,96.542z"/>
<path d="M472.147,333.28h-3.14V21.288C469.007,9.549,459.457,0,447.72,0H64.28C52.543,0,42.993,9.549,42.993,21.288V333.28h-3.14
	c-11.737,0-21.288,9.549-21.288,21.287v136.146c0,11.738,9.549,21.288,21.288,21.288h432.294c11.737,0,21.287-9.549,21.287-21.288
	V354.566C493.434,342.829,483.885,333.28,472.147,333.28z M58.667,21.288c0-3.096,2.518-5.614,5.614-5.614h383.44
	c3.095,0,5.614,2.518,5.614,5.614V333.28h-9.488c-2.035-10.432-7.504-19.649-15.191-26.411V109.715c0-4.328-3.509-7.837-7.837-7.837
	s-7.837,3.509-7.837,7.837v188c-4.853-1.689-10.058-2.615-15.479-2.615h-9.213C380.24,241.318,340.086,197.897,288,185.065
	l26.485-31.634c4.854-5.797,5.099-14.089,0.597-20.167l-17.023-22.969c-3.059-4.128-7.954-6.593-13.094-6.593h-57.926
	c-5.139,0-10.033,2.464-13.094,6.593l-17.026,22.97c-4.501,6.076-4.255,14.368,0.599,20.165l26.484,31.634
	c-52.086,12.832-92.242,56.253-100.291,110.035h-9.213c-5.421,0-10.627,0.927-15.478,2.615V56.024h313.965v18.163
	c0,4.328,3.509,7.837,7.837,7.837s7.837-3.509,7.837-7.837v-26c0-4.328-3.509-7.837-7.837-7.837H91.181
	c-4.328,0-7.837,3.509-7.837,7.837v258.68c-7.685,6.763-13.154,15.979-15.191,26.411h-9.488V21.288H58.667z M114.497,310.774
	h283.007c14.258,0,26.328,9.503,30.232,22.506H84.265C88.168,320.277,100.239,310.774,114.497,310.774z M228.835,150.687l7.003,24.1
	l-20.176-24.1H228.835z M215.133,135.013l11.403-15.385c0.117-0.158,0.305-0.253,0.502-0.253h9.027l-6.557,15.638H215.133z
	 M256,196.861c58.359,0,106.963,42.541,116.443,98.239h-17.571c-9.261-46.126-50.06-80.988-98.872-80.988
	c-19.343,0-38.152,5.516-54.393,15.952c-1.535,0.987-3.059,2.026-4.53,3.089c-3.509,2.534-4.299,7.432-1.765,10.941
	c2.534,3.508,7.432,4.301,10.941,1.765c1.242-0.897,2.531-1.775,3.829-2.609c13.707-8.808,29.585-13.465,45.918-13.465
	c40.131,0,73.851,27.898,82.831,65.314H173.146c2.681-11.232,7.648-21.813,14.754-31.252c2.604-3.458,1.911-8.371-1.546-10.974
	c-3.457-2.605-8.371-1.911-10.974,1.546c-9.187,12.199-15.354,26.014-18.28,40.679h-17.543
	C149.037,239.402,197.641,196.861,256,196.861z M266.843,150.687l-8.869,30.526c-0.658-0.009-1.314-0.025-1.975-0.025
	c-0.659,0-1.316,0.016-1.974,0.025l-8.87-30.526H266.843z M246.503,135.013l6.557-15.638h5.883l6.557,15.638H246.503z
	 M282.492,135.013l-6.556-15.638h9.026c0.196,0,0.385,0.094,0.502,0.252l11.403,15.386H282.492z M296.339,150.687l-20.176,24.098
	l7.002-24.098H296.339z M472.147,496.327H39.853c-3.095,0-5.614-2.518-5.614-5.614v-58.647h67.116c4.328,0,7.837-3.509,7.837-7.837
	s-3.509-7.837-7.837-7.837H34.239v-61.826c0-3.095,2.518-5.613,5.614-5.613h432.294c3.095,0,5.613,2.518,5.613,5.613v61.826H315.53
	c0.47-2.387,0.713-4.837,0.713-7.325c0-10.016-3.903-19.434-10.989-26.518c-7.085-7.081-16.505-10.982-26.525-10.982
	c-8.319,0-16.227,2.69-22.728,7.657c-6.499-4.967-14.407-7.657-22.728-7.657c-10.02,0-19.44,3.9-26.526,10.982
	c-7.087,7.083-10.989,16.501-10.989,26.518c0,2.487,0.241,4.938,0.712,7.325h-59.588c-4.328,0-7.837,3.509-7.837,7.837
	s3.509,7.837,7.837,7.837h66.765c0.955,1.224,1.982,2.403,3.097,3.518l39.653,39.667c2.565,2.564,5.976,3.976,9.604,3.976
	c3.632,0,7.044-1.414,9.606-3.978l39.647-39.662c1.116-1.116,2.144-2.296,3.099-3.52H477.76v58.647
	C477.761,493.808,475.243,496.327,472.147,496.327z M211.432,409.067c0-5.829,2.272-11.31,6.396-15.433
	c4.125-4.123,9.611-6.394,15.446-6.394c5.835,0,11.319,2.271,15.443,6.392l1.742,1.743c1.47,1.47,3.464,2.296,5.542,2.296
	c2.078,0,4.073-0.825,5.542-2.296l1.74-1.741c4.125-4.123,9.61-6.394,15.445-6.394s11.319,2.271,15.445,6.394
	c4.125,4.123,6.397,9.605,6.397,15.433c0,5.829-2.272,11.31-6.398,15.435L256,462.689L217.827,424.5
	C213.703,420.378,211.432,414.898,211.432,409.067z"/>
<g>
</g>
<g>
</g>
<g>
</g>
<g>
</g>
<g>
</g>
<g>
</g>
<g>
</g>
<g>
</g>
<g>
</g>
<g>
</g>
<g>
</g>
<g>
</g>
<g>
</g>
<g>
</g>
<g>
</g>
</svg>
